<svg xmlns="http://www.w3.org/2000/svg" xmlns:xlink="http://www.w3.org/1999/xlink" width="559" zoomAndPan="magnify" viewBox="0 0 419.25 297.75" height="397" preserveAspectRatio="xMidYMid meet" version="1.0"><defs><g/><clipPath id="966f3ba781"><path d="M 0 0.140625 L 418.5 0.140625 L 418.5 297.359375 L 0 297.359375 Z M 0 0.140625 " clip-rule="nonzero"/></clipPath><clipPath id="62f8bffe7f"><path d="M 20.453125 17.109375 L 398.527344 17.109375 L 398.527344 280.636719 L 20.453125 280.636719 Z M 20.453125 17.109375 " clip-rule="nonzero"/></clipPath><clipPath id="a80691f168"><path d="M 32.25 28.359375 L 92.894531 28.359375 L 92.894531 86.753906 L 32.25 86.753906 Z M 32.25 28.359375 " clip-rule="nonzero"/></clipPath><clipPath id="ac469b7981"><path d="M 326.03125 210.625 L 386 210.625 L 386 269 L 326.03125 269 Z M 326.03125 210.625 " clip-rule="nonzero"/></clipPath><clipPath id="3d89e13536"><path d="M 239 186 L 349.394531 186 L 349.394531 190 L 239 190 Z M 239 186 " clip-rule="nonzero"/></clipPath><clipPath id="044629cb7c"><path d="M 224 188 L 231 188 L 231 192.953125 L 224 192.953125 Z M 224 188 " clip-rule="nonzero"/></clipPath><clipPath id="e9c36e705b"><path d="M 223 183.21875 L 231 183.21875 L 231 188 L 223 188 Z M 223 183.21875 " clip-rule="nonzero"/></clipPath><clipPath id="a38a4a7bb4"><path d="M 69.394531 186 L 180 186 L 180 190 L 69.394531 190 Z M 69.394531 186 " clip-rule="nonzero"/></clipPath><clipPath id="1d1c44511e"><path d="M 188 188 L 195 188 L 195 192.953125 L 188 192.953125 Z M 188 188 " clip-rule="nonzero"/></clipPath><clipPath id="71384a3899"><path d="M 188 183.21875 L 195 183.21875 L 195 188 L 188 188 Z M 188 183.21875 " clip-rule="nonzero"/></clipPath><clipPath id="9f7b032d77"><path d="M 239 107 L 349.394531 107 L 349.394531 112 L 239 112 Z M 239 107 " clip-rule="nonzero"/></clipPath><clipPath id="52e7240c5e"><path d="M 224 109 L 231 109 L 231 114.230469 L 224 114.230469 Z M 224 109 " clip-rule="nonzero"/></clipPath><clipPath id="7704bb612c"><path d="M 223 104.496094 L 231 104.496094 L 231 109 L 223 109 Z M 223 104.496094 " clip-rule="nonzero"/></clipPath><clipPath id="2137f6801b"><path d="M 69.394531 107 L 180 107 L 180 112 L 69.394531 112 Z M 69.394531 107 " clip-rule="nonzero"/></clipPath><clipPath id="6427bc32ce"><path d="M 188 109 L 195 109 L 195 114.230469 L 188 114.230469 Z M 188 109 " clip-rule="nonzero"/></clipPath><clipPath id="1a040622a3"><path d="M 188 104.496094 L 195 104.496094 L 195 109 L 188 109 Z M 188 104.496094 " clip-rule="nonzero"/></clipPath></defs><g clip-path="url(#966f3ba781)"><path fill="#ffffff" d="M 0 0.140625 L 418.5 0.140625 L 418.5 297.359375 L 0 297.359375 Z M 0 0.140625 " fill-opacity="1" fill-rule="nonzero"/><path fill="#2f4230" d="M 0 0.140625 L 418.5 0.140625 L 418.5 297.359375 L 0 297.359375 Z M 0 0.140625 " fill-opacity="1" fill-rule="nonzero"/></g><g clip-path="url(#62f8bffe7f)"><path fill="#fffceb" d="M 398.308594 17.109375 L 398.308594 280.273438 C 398.308594 280.273438 72.035156 280.273438 20.460938 280.273438 C 20.460938 280.273438 20.460938 17.109375 20.460938 17.109375 Z M 397.929688 17.496094 L 397.929688 279.886719 L 20.839844 279.886719 L 20.839844 272.902344 C 20.839844 231.324219 20.839844 27.535156 20.839844 17.496094 Z M 394.671875 19.839844 C 394.863281 20.328125 395.300781 20.800781 395.484375 20.992188 L 395.574219 21.085938 L 395.574219 277.542969 C 395.574219 277.542969 23.195312 277.542969 23.195312 277.542969 C 23.195312 234.921875 23.195312 62.460938 23.195312 19.839844 Z M 394.328125 21.085938 L 394.328125 276.296875 C 392.714844 276.296875 389.585938 276.296875 385.148438 276.296875 C 327.089844 276.296875 45.488281 276.296875 24.441406 276.296875 C 24.441406 276.296875 24.441406 21.085938 24.441406 21.085938 Z M 394.328125 21.085938 " fill-opacity="1" fill-rule="evenodd"/></g><g clip-path="url(#a80691f168)"><path fill="#fffceb" d="M 38.542969 40.3125 C 38.972656 40.300781 39.402344 40.328125 39.828125 40.402344 C 39.984375 40.429688 40.140625 40.464844 40.292969 40.507812 C 39.078125 36.507812 43.476562 33.316406 47.28125 34.777344 C 47.273438 34.183594 47.347656 33.59375 47.511719 33.023438 C 42.714844 31.617188 38.148438 35.453125 38.542969 40.3125 Z M 78.476562 31.902344 C 73.796875 31.886719 69.117188 31.875 64.441406 31.859375 C 64.390625 31.859375 64.335938 31.84375 64.285156 31.824219 C 64.296875 31.839844 64.316406 31.855469 64.316406 31.875 C 64.953125 36.628906 61.90625 41.042969 57.230469 42.121094 C 53.527344 42.976562 49.214844 40.566406 47.761719 37.113281 C 47.523438 36.546875 47.378906 35.957031 47.3125 35.371094 C 47.253906 35.371094 47.203125 35.367188 47.171875 35.347656 C 43.382812 33.375 39.878906 37.074219 41.230469 40.648438 C 41.246094 40.695312 41.214844 40.742188 41.152344 40.785156 C 42.214844 41.195312 43.234375 41.835938 44.085938 42.503906 C 48.027344 45.578125 47.234375 51.351562 43.921875 54.535156 C 41.917969 56.46875 39.0625 57.257812 36.332031 56.882812 C 36.328125 56.882812 36.324219 56.882812 36.320312 56.882812 C 36.320312 66.683594 36.320312 76.488281 36.320312 86.289062 C 36.320312 86.429688 36.320312 86.570312 36.320312 86.707031 L 35.261719 86.742188 C 35.261719 81.128906 35.261719 75.519531 35.261719 69.90625 C 35.261719 65.269531 35.261719 60.628906 35.261719 55.992188 C 35.261719 56.101562 35.601562 56.21875 35.894531 56.332031 C 39.894531 56.613281 43.613281 54.335938 45.136719 50.566406 C 45.949219 48.558594 45.910156 46.339844 45 44.378906 C 44.019531 42.257812 42.46875 41.207031 40.324219 40.929688 C 35.988281 40.371094 32.25 45.375 34.742188 49.199219 C 35.949219 51.050781 38.457031 50.910156 39.980469 49.527344 C 40.722656 48.847656 41.082031 47.835938 41.09375 46.851562 C 41.097656 46.300781 40.871094 45.773438 40.59375 45.3125 C 40.230469 44.714844 40.179688 44.746094 39.621094 44.632812 C 39.238281 44.554688 38.9375 44.097656 38.5625 44.023438 C 40.050781 44.320312 41.664062 45.421875 42.078125 46.914062 C 42.742188 49.292969 40.316406 51.273438 38.148438 51.1875 C 36.71875 51.125 34.960938 50.035156 34.011719 49.007812 C 32.375 47.238281 32.652344 44.597656 33.925781 42.726562 C 34.792969 41.453125 36.136719 40.679688 37.59375 40.414062 C 37.585938 40.398438 37.570312 40.386719 37.566406 40.371094 C 36.660156 35.152344 41.527344 30.855469 46.597656 32.453125 C 46.929688 32.558594 47.203125 32.855469 47.515625 33.007812 C 47.753906 32.199219 48.160156 31.429688 48.734375 30.757812 C 50.222656 29.003906 52.777344 28.339844 54.886719 29.253906 C 56.328125 29.878906 57.640625 30.863281 58.285156 32.324219 C 59.265625 34.527344 58.007812 36.980469 55.722656 37.585938 C 53.828125 38.085938 51.359375 36.34375 50.996094 34.519531 C 51.046875 34.773438 52.003906 34.859375 52.054688 35.128906 C 52.148438 35.605469 52.308594 36.003906 52.570312 36.414062 C 52.71875 36.640625 52.925781 36.824219 53.125 37.003906 C 52.828125 36.738281 53.441406 37.011719 53.542969 37.03125 C 54.535156 37.210938 55.5625 36.746094 56.304688 36.128906 C 58.035156 34.703125 57.785156 32.1875 56.546875 30.554688 C 55.222656 28.8125 52.625 29.339844 50.996094 30.335938 C 49.210938 31.429688 48.265625 33.496094 48.328125 35.542969 C 48.386719 37.5625 49.523438 39.457031 51.046875 40.714844 C 52.691406 42.078125 55.386719 41.824219 57.261719 41.207031 C 61.402344 39.835938 63.824219 35.496094 63.257812 31.265625 C 63.277344 31.421875 63.722656 31.527344 64.027344 31.65625 C 63.808594 31.480469 63.597656 31.25 63.382812 31.25 C 73.15625 31.277344 82.929688 31.304688 92.703125 31.332031 L 92.703125 31.941406 C 87.964844 31.925781 83.21875 31.914062 78.476562 31.902344 " fill-opacity="1" fill-rule="nonzero"/></g><g clip-path="url(#ac469b7981)"><path fill="#fffceb" d="M 380.230469 257.066406 C 379.800781 257.078125 379.371094 257.050781 378.945312 256.976562 C 378.789062 256.949219 378.632812 256.914062 378.476562 256.871094 C 379.695312 260.871094 375.296875 264.0625 371.492188 262.601562 C 371.5 263.195312 371.425781 263.785156 371.261719 264.355469 C 376.058594 265.761719 380.625 261.925781 380.230469 257.066406 Z M 340.296875 265.476562 C 344.976562 265.492188 349.652344 265.503906 354.332031 265.519531 C 354.382812 265.519531 354.433594 265.535156 354.488281 265.554688 C 354.476562 265.539062 354.457031 265.523438 354.457031 265.503906 C 353.820312 260.75 356.867188 256.335938 361.542969 255.257812 C 365.246094 254.402344 369.554688 256.8125 371.007812 260.265625 C 371.25 260.832031 371.394531 261.421875 371.457031 262.007812 C 371.515625 262.007812 371.566406 262.011719 371.601562 262.03125 C 375.390625 264.003906 378.894531 260.304688 377.542969 256.730469 C 377.527344 256.683594 377.558594 256.636719 377.617188 256.59375 C 376.558594 256.179688 375.535156 255.542969 374.683594 254.875 C 370.742188 251.800781 371.539062 246.027344 374.847656 242.84375 C 376.855469 240.910156 379.710938 240.121094 382.441406 240.496094 C 382.445312 240.496094 382.449219 240.496094 382.453125 240.496094 C 382.453125 230.695312 382.453125 220.890625 382.453125 211.089844 C 382.453125 210.949219 382.453125 210.808594 382.453125 210.671875 L 383.511719 210.636719 C 383.511719 216.25 383.511719 221.859375 383.511719 227.472656 C 383.511719 232.109375 383.511719 236.75 383.511719 241.386719 C 383.511719 241.277344 383.171875 241.160156 382.875 241.046875 C 378.875 240.765625 375.160156 243.042969 373.636719 246.8125 C 372.824219 248.820312 372.863281 251.039062 373.769531 253 C 374.75 255.121094 376.300781 256.171875 378.449219 256.449219 C 382.78125 257.007812 386.523438 252.003906 384.03125 248.179688 C 382.824219 246.328125 380.316406 246.46875 378.792969 247.851562 C 378.050781 248.53125 377.6875 249.542969 377.679688 250.527344 C 377.675781 251.078125 377.902344 251.601562 378.179688 252.066406 C 378.542969 252.664062 378.59375 252.632812 379.152344 252.746094 C 379.535156 252.824219 379.835938 253.28125 380.210938 253.355469 C 378.722656 253.058594 377.109375 251.957031 376.695312 250.464844 C 376.03125 248.085938 378.457031 246.105469 380.625 246.191406 C 382.054688 246.25 383.8125 247.34375 384.761719 248.371094 C 386.398438 250.140625 386.121094 252.78125 384.847656 254.648438 C 383.980469 255.921875 382.636719 256.699219 381.179688 256.964844 C 381.1875 256.980469 381.203125 256.992188 381.207031 257.007812 C 382.113281 262.226562 377.246094 266.523438 372.175781 264.925781 C 371.84375 264.820312 371.570312 264.523438 371.257812 264.371094 C 371.019531 265.179688 370.613281 265.949219 370.039062 266.621094 C 368.550781 268.375 365.992188 269.039062 363.882812 268.125 C 362.445312 267.5 361.132812 266.515625 360.484375 265.054688 C 359.507812 262.851562 360.765625 260.398438 363.050781 259.792969 C 364.945312 259.292969 367.414062 261.035156 367.777344 262.859375 C 367.726562 262.605469 366.769531 262.519531 366.71875 262.25 C 366.621094 261.773438 366.464844 261.375 366.199219 260.964844 C 366.054688 260.738281 365.847656 260.554688 365.648438 260.375 C 365.945312 260.640625 365.328125 260.367188 365.230469 260.347656 C 364.238281 260.164062 363.210938 260.632812 362.464844 261.25 C 360.738281 262.675781 360.988281 265.191406 362.226562 266.824219 C 363.550781 268.566406 366.148438 268.039062 367.777344 267.039062 C 369.5625 265.949219 370.507812 263.882812 370.445312 261.835938 C 370.386719 259.816406 369.25 257.921875 367.726562 256.664062 C 366.082031 255.300781 363.386719 255.554688 361.511719 256.171875 C 357.371094 257.542969 354.949219 261.882812 355.515625 266.113281 C 355.492188 265.957031 355.050781 265.851562 354.746094 265.722656 C 354.960938 265.898438 355.175781 266.128906 355.390625 266.128906 C 345.617188 266.101562 335.839844 266.074219 326.066406 266.046875 L 326.066406 265.4375 C 330.808594 265.453125 335.554688 265.464844 340.296875 265.476562 " fill-opacity="1" fill-rule="nonzero"/></g><g fill="#fffceb" fill-opacity="1"><g transform="translate(91.942075, 162.645166)"><g><path d="M 3 0 L 3 -24.546875 L 10.875 -24.546875 L 10.875 0 Z M 3 0 "/></g></g></g><g fill="#fffceb" fill-opacity="1"><g transform="translate(105.81639, 162.645166)"><g><path d="M 20.1875 0 L 9.875 -11.921875 L 9.875 0 L 2.640625 0 L 2.640625 -24.546875 L 9.53125 -24.546875 L 19.828125 -12.453125 L 19.828125 -24.546875 L 27.078125 -24.546875 L 27.078125 0 Z M 20.1875 0 "/></g></g></g><g fill="#fffceb" fill-opacity="1"><g transform="translate(135.526679, 162.645166)"><g><path d="M 9.3125 0 L 0.609375 -24.546875 L 9.03125 -24.546875 L 13.953125 -8.140625 L 14.09375 -8.140625 L 19.046875 -24.546875 L 27.109375 -24.546875 L 18.4375 0 Z M 9.3125 0 "/></g></g></g><g fill="#fffceb" fill-opacity="1"><g transform="translate(163.27531, 162.645166)"><g><path d="M 3 0 L 3 -24.546875 L 10.875 -24.546875 L 10.875 0 Z M 3 0 "/></g></g></g><g fill="#fffceb" fill-opacity="1"><g transform="translate(177.149625, 162.645166)"><g><path d="M 16.765625 -18.265625 L 16.765625 0 L 8.875 0 L 8.875 -18.265625 L 0.828125 -18.265625 L 0.828125 -24.546875 L 24.796875 -24.546875 L 24.796875 -18.265625 Z M 16.765625 -18.265625 "/></g></g></g><g fill="#fffceb" fill-opacity="1"><g transform="translate(202.90092, 162.645166)"><g><path d="M 19.078125 0 L 18.046875 -3.453125 L 9.453125 -3.453125 L 8.421875 0 L 0.359375 0 L 9.3125 -24.546875 L 18.484375 -24.546875 L 27.4375 0 Z M 11.09375 -8.953125 L 16.40625 -8.953125 L 13.84375 -17.6875 L 13.703125 -17.6875 Z M 11.09375 -8.953125 "/></g></g></g><g fill="#fffceb" fill-opacity="1"><g transform="translate(230.649551, 162.645166)"><g><path d="M 16.765625 -18.265625 L 16.765625 0 L 8.875 0 L 8.875 -18.265625 L 0.828125 -18.265625 L 0.828125 -24.546875 L 24.796875 -24.546875 L 24.796875 -18.265625 Z M 16.765625 -18.265625 "/></g></g></g><g fill="#fffceb" fill-opacity="1"><g transform="translate(256.400846, 162.645166)"><g><path d="M 3 0 L 3 -24.546875 L 10.875 -24.546875 L 10.875 0 Z M 3 0 "/></g></g></g><g fill="#fffceb" fill-opacity="1"><g transform="translate(270.275161, 162.645166)"><g><path d="M 14.84375 -24.96875 C 19.070312 -24.96875 22.335938 -23.882812 24.640625 -21.71875 C 26.953125 -19.5625 28.109375 -16.410156 28.109375 -12.265625 C 28.109375 -8.128906 26.953125 -4.976562 24.640625 -2.8125 C 22.335938 -0.65625 19.070312 0.421875 14.84375 0.421875 C 10.601562 0.421875 7.335938 -0.648438 5.046875 -2.796875 C 2.753906 -4.953125 1.609375 -8.109375 1.609375 -12.265625 C 1.609375 -16.429688 2.753906 -19.585938 5.046875 -21.734375 C 7.335938 -23.890625 10.601562 -24.96875 14.84375 -24.96875 Z M 14.84375 -19.078125 C 13.15625 -19.078125 11.867188 -18.566406 10.984375 -17.546875 C 10.109375 -16.523438 9.671875 -15.144531 9.671875 -13.40625 L 9.671875 -11.125 C 9.671875 -9.394531 10.109375 -8.015625 10.984375 -6.984375 C 11.867188 -5.960938 13.15625 -5.453125 14.84375 -5.453125 C 16.53125 -5.453125 17.816406 -5.960938 18.703125 -6.984375 C 19.597656 -8.015625 20.046875 -9.394531 20.046875 -11.125 L 20.046875 -13.40625 C 20.046875 -15.144531 19.597656 -16.523438 18.703125 -17.546875 C 17.816406 -18.566406 16.53125 -19.078125 14.84375 -19.078125 Z M 14.84375 -19.078125 "/></g></g></g><g fill="#fffceb" fill-opacity="1"><g transform="translate(299.985439, 162.645166)"><g><path d="M 20.1875 0 L 9.875 -11.921875 L 9.875 0 L 2.640625 0 L 2.640625 -24.546875 L 9.53125 -24.546875 L 19.828125 -12.453125 L 19.828125 -24.546875 L 27.078125 -24.546875 L 27.078125 0 Z M 20.1875 0 "/></g></g></g><g clip-path="url(#3d89e13536)"><path fill="#fffceb" d="M 252.378906 187.636719 C 250.769531 187.636719 249.152344 187.707031 247.554688 187.511719 C 246.988281 187.441406 246.402344 187.355469 245.898438 187.085938 C 245.875 187.070312 245.847656 187.054688 245.824219 187.035156 C 245.804688 187.019531 245.773438 187.003906 245.753906 186.992188 L 245.664062 186.941406 L 245.617188 186.914062 L 245.574219 186.890625 L 245.484375 186.839844 L 245.394531 186.796875 L 245.347656 186.773438 L 245.304688 186.75 C 245.277344 186.734375 245.242188 186.722656 245.210938 186.707031 L 245.113281 186.667969 C 244.992188 186.617188 244.863281 186.566406 244.734375 186.527344 C 244.671875 186.503906 244.605469 186.488281 244.539062 186.472656 L 244.335938 186.425781 C 243.988281 186.351562 243.628906 186.320312 243.273438 186.332031 C 242.914062 186.34375 242.554688 186.386719 242.207031 186.472656 C 241.507812 186.640625 240.835938 186.945312 240.230469 187.355469 C 239.929688 187.5625 239.644531 187.792969 239.378906 188.042969 L 239.363281 188.0625 L 239.378906 188.078125 C 239.644531 188.328125 239.929688 188.558594 240.230469 188.765625 C 240.835938 189.175781 241.507812 189.484375 242.207031 189.652344 C 242.5625 189.734375 242.914062 189.785156 243.273438 189.792969 C 243.628906 189.800781 243.984375 189.769531 244.335938 189.695312 L 244.4375 189.671875 L 244.539062 189.652344 C 244.605469 189.632812 244.667969 189.617188 244.734375 189.59375 C 244.863281 189.554688 244.992188 189.511719 245.113281 189.460938 L 245.210938 189.421875 C 245.242188 189.410156 245.269531 189.394531 245.304688 189.378906 L 245.347656 189.355469 L 245.394531 189.332031 L 245.484375 189.289062 L 245.574219 189.238281 L 245.617188 189.214844 L 245.664062 189.1875 L 245.753906 189.136719 C 245.753906 189.136719 245.796875 189.109375 245.824219 189.089844 C 245.851562 189.074219 245.875 189.050781 245.902344 189.035156 C 246.40625 188.773438 246.996094 188.6875 247.554688 188.617188 C 249.152344 188.417969 250.777344 188.492188 252.378906 188.492188 C 273.402344 188.476562 349.382812 188.492188 349.382812 188.492188 L 349.382812 187.652344 C 349.382812 187.652344 273.402344 187.664062 252.378906 187.652344 Z M 252.378906 187.636719 " fill-opacity="1" fill-rule="nonzero"/></g><g clip-path="url(#044629cb7c)"><path fill="#fffceb" d="M 230.246094 189.730469 C 230.222656 189.5625 230.191406 189.398438 230.152344 189.238281 C 230.113281 189.074219 230.054688 188.917969 229.996094 188.765625 C 229.988281 188.75 229.984375 188.738281 229.976562 188.722656 C 229.90625 188.792969 229.828125 188.867188 229.75 188.933594 C 229.585938 189.070312 229.40625 189.191406 229.214844 189.292969 C 229.027344 189.394531 228.824219 189.476562 228.617188 189.535156 C 228.410156 189.589844 228.203125 189.628906 227.988281 189.652344 C 227.78125 189.667969 227.570312 189.667969 227.363281 189.652344 C 227.15625 189.632812 226.953125 189.601562 226.753906 189.554688 C 226.550781 189.511719 226.355469 189.449219 226.164062 189.382812 C 225.972656 189.308594 225.789062 189.230469 225.609375 189.136719 C 225.519531 189.089844 225.429688 189.042969 225.347656 188.984375 L 225.28125 188.945312 L 225.21875 188.90625 C 225.179688 188.878906 225.132812 188.851562 225.09375 188.824219 C 224.960938 188.734375 224.832031 188.632812 224.703125 188.53125 C 224.625 188.617188 224.550781 188.703125 224.472656 188.792969 C 224.328125 188.972656 224.195312 189.160156 224.070312 189.355469 C 224.589844 189.835938 225.074219 190.339844 225.542969 190.839844 C 225.796875 191.105469 226.046875 191.371094 226.304688 191.628906 L 226.488281 191.8125 C 226.523438 191.839844 226.550781 191.875 226.585938 191.902344 L 226.679688 191.988281 C 226.808594 192.097656 226.941406 192.203125 227.078125 192.304688 C 227.210938 192.40625 227.351562 192.496094 227.496094 192.574219 C 227.644531 192.652344 227.789062 192.71875 227.933594 192.769531 C 228.078125 192.820312 228.226562 192.855469 228.371094 192.871094 L 228.476562 192.871094 C 228.476562 192.871094 228.492188 192.882812 228.503906 192.882812 L 228.632812 192.882812 C 228.632812 192.882812 228.667969 192.875 228.683594 192.871094 L 228.734375 192.871094 C 228.734375 192.871094 228.75 192.859375 228.757812 192.859375 L 228.78125 192.859375 C 228.914062 192.828125 229.042969 192.777344 229.160156 192.707031 C 229.167969 192.707031 229.175781 192.703125 229.183594 192.699219 L 229.207031 192.679688 L 229.25 192.652344 C 229.25 192.652344 229.265625 192.640625 229.273438 192.636719 L 229.292969 192.621094 L 229.339844 192.585938 C 229.339844 192.585938 229.355469 192.574219 229.363281 192.570312 L 229.382812 192.550781 L 229.429688 192.519531 L 229.46875 192.480469 L 229.492188 192.460938 L 229.550781 192.402344 L 229.609375 192.332031 L 229.625 192.3125 L 229.664062 192.265625 L 229.699219 192.222656 L 229.730469 192.175781 L 229.765625 192.132812 L 229.800781 192.082031 C 229.882812 191.953125 229.957031 191.8125 230.015625 191.667969 C 230.078125 191.523438 230.128906 191.363281 230.167969 191.207031 C 230.207031 191.050781 230.234375 190.890625 230.253906 190.722656 C 230.269531 190.558594 230.273438 190.390625 230.273438 190.222656 C 230.273438 190.136719 230.269531 190.054688 230.265625 189.96875 C 230.257812 189.886719 230.246094 189.800781 230.234375 189.722656 Z M 230.246094 189.730469 " fill-opacity="1" fill-rule="nonzero"/></g><path fill="#fffceb" d="M 228.796875 187.332031 C 228.664062 187.261719 228.515625 187.203125 228.371094 187.160156 C 228.226562 187.113281 228.070312 187.085938 227.910156 187.074219 C 227.753906 187.0625 227.59375 187.0625 227.429688 187.074219 C 227.269531 187.085938 227.105469 187.113281 226.949219 187.148438 C 226.628906 187.222656 226.316406 187.339844 226.019531 187.488281 C 225.945312 187.527344 225.875 187.566406 225.800781 187.613281 L 225.75 187.648438 L 225.699219 187.679688 C 225.667969 187.703125 225.628906 187.726562 225.59375 187.746094 C 225.515625 187.804688 225.4375 187.859375 225.359375 187.914062 C 225.4375 187.976562 225.515625 188.03125 225.59375 188.082031 C 225.628906 188.105469 225.667969 188.128906 225.699219 188.152344 L 225.75 188.183594 L 225.800781 188.21875 C 225.875 188.261719 225.945312 188.300781 226.019531 188.339844 C 226.316406 188.492188 226.628906 188.617188 226.949219 188.683594 C 227.109375 188.714844 227.269531 188.746094 227.429688 188.753906 C 227.59375 188.765625 227.75 188.765625 227.910156 188.753906 C 228.070312 188.738281 228.226562 188.710938 228.371094 188.671875 C 228.523438 188.632812 228.660156 188.570312 228.796875 188.496094 C 228.929688 188.425781 229.058594 188.339844 229.175781 188.242188 C 229.292969 188.140625 229.40625 188.027344 229.507812 187.910156 C 229.40625 187.785156 229.300781 187.675781 229.175781 187.578125 C 229.058594 187.480469 228.929688 187.394531 228.796875 187.320312 Z M 228.796875 187.332031 " fill-opacity="1" fill-rule="nonzero"/><g clip-path="url(#e9c36e705b)"><path fill="#fffceb" d="M 224.703125 187.316406 C 224.832031 187.214844 224.960938 187.113281 225.09375 187.023438 C 225.132812 186.996094 225.179688 186.96875 225.21875 186.941406 L 225.28125 186.902344 L 225.347656 186.863281 C 225.429688 186.8125 225.519531 186.761719 225.609375 186.710938 C 225.789062 186.617188 225.972656 186.539062 226.164062 186.464844 C 226.355469 186.390625 226.550781 186.335938 226.753906 186.292969 C 226.953125 186.246094 227.15625 186.214844 227.363281 186.195312 C 227.570312 186.179688 227.777344 186.179688 227.988281 186.195312 C 228.203125 186.214844 228.410156 186.253906 228.617188 186.3125 C 228.824219 186.371094 229.027344 186.453125 229.214844 186.554688 C 229.40625 186.65625 229.585938 186.777344 229.75 186.914062 C 229.828125 186.980469 229.90625 187.054688 229.976562 187.125 C 229.984375 187.109375 229.988281 187.097656 229.996094 187.082031 C 230.054688 186.929688 230.105469 186.765625 230.152344 186.609375 C 230.191406 186.449219 230.222656 186.285156 230.246094 186.117188 L 230.257812 186.054688 L 230.257812 185.996094 L 230.269531 185.960938 L 230.269531 185.933594 C 230.269531 185.933594 230.273438 185.894531 230.273438 185.871094 C 230.28125 185.792969 230.28125 185.710938 230.28125 185.628906 C 230.28125 185.46875 230.261719 185.3125 230.234375 185.148438 C 230.179688 184.828125 230.078125 184.523438 229.925781 184.242188 C 229.777344 183.960938 229.582031 183.722656 229.34375 183.542969 C 229.226562 183.453125 229.105469 183.378906 228.96875 183.328125 C 228.835938 183.277344 228.703125 183.246094 228.554688 183.234375 C 228.484375 183.226562 228.410156 183.226562 228.335938 183.234375 C 228.265625 183.234375 228.191406 183.246094 228.117188 183.261719 C 228.046875 183.273438 227.972656 183.289062 227.894531 183.3125 C 227.878906 183.3125 227.855469 183.324219 227.839844 183.328125 C 227.820312 183.335938 227.804688 183.339844 227.78125 183.347656 C 227.742188 183.363281 227.703125 183.375 227.664062 183.390625 C 227.355469 183.507812 227.066406 183.671875 226.78125 183.867188 C 226.496094 184.058594 226.226562 184.28125 225.957031 184.515625 C 225.6875 184.75 225.425781 185.003906 225.15625 185.253906 C 225.023438 185.382812 224.886719 185.511719 224.746094 185.636719 C 224.714844 185.671875 224.679688 185.699219 224.640625 185.730469 C 224.609375 185.765625 224.570312 185.792969 224.535156 185.828125 L 224.328125 186.011719 C 224.210938 186.117188 224.085938 186.21875 223.96875 186.324219 C 224.121094 186.578125 224.289062 186.824219 224.472656 187.054688 C 224.546875 187.144531 224.625 187.230469 224.703125 187.316406 Z M 224.703125 187.316406 " fill-opacity="1" fill-rule="nonzero"/></g><path fill="#fffceb" d="M 223.292969 186.90625 C 222.910156 187.226562 222.519531 187.546875 222.121094 187.847656 C 222.132812 187.855469 222.144531 187.859375 222.148438 187.863281 C 222.464844 188.070312 222.769531 188.289062 223.074219 188.515625 C 223.144531 188.570312 223.226562 188.632812 223.304688 188.6875 C 223.335938 188.714844 223.371094 188.738281 223.402344 188.765625 C 223.527344 188.582031 223.65625 188.410156 223.796875 188.234375 C 223.886719 188.128906 223.976562 188.023438 224.066406 187.921875 C 223.96875 187.820312 223.878906 187.714844 223.796875 187.609375 C 223.617188 187.382812 223.449219 187.148438 223.296875 186.90625 Z M 223.292969 186.90625 " fill-opacity="1" fill-rule="nonzero"/><path fill="#fffceb" d="M 236.300781 187.09375 C 236.085938 186.875 235.878906 186.609375 235.691406 186.296875 C 235.59375 186.140625 235.5 185.972656 235.410156 185.792969 C 235.324219 185.613281 235.242188 185.421875 235.167969 185.222656 C 235.152344 185.175781 235.136719 185.125 235.117188 185.082031 L 235.109375 185.082031 L 235.039062 185.070312 C 234.996094 185.066406 234.949219 185.054688 234.898438 185.046875 C 234.714844 185.019531 234.523438 184.996094 234.335938 184.988281 C 234.285156 184.988281 234.238281 184.980469 234.1875 184.976562 C 234.136719 184.976562 234.09375 184.976562 234.042969 184.976562 L 233.753906 184.976562 C 233.554688 184.976562 233.367188 184.988281 233.167969 185.007812 C 233.082031 185.019531 232.992188 185.03125 232.902344 185.042969 L 232.824219 185.335938 C 232.699219 185.796875 232.53125 186.230469 232.324219 186.628906 C 232.140625 186.976562 231.933594 187.273438 231.707031 187.523438 C 231.527344 187.726562 231.332031 187.910156 231.125 188.066406 L 231.136719 188.066406 C 231.136719 188.066406 231.148438 188.082031 231.152344 188.089844 C 231.210938 188.128906 231.261719 188.171875 231.300781 188.207031 C 231.3125 188.21875 231.328125 188.230469 231.339844 188.242188 L 231.351562 188.242188 L 231.359375 188.257812 C 231.460938 188.347656 231.589844 188.46875 231.714844 188.617188 C 231.9375 188.867188 232.144531 189.164062 232.328125 189.511719 C 232.535156 189.910156 232.707031 190.339844 232.828125 190.804688 L 232.90625 191.097656 C 232.996094 191.105469 233.085938 191.117188 233.175781 191.128906 C 233.367188 191.152344 233.5625 191.15625 233.757812 191.164062 C 233.953125 191.164062 234.144531 191.164062 234.335938 191.148438 C 234.523438 191.136719 234.714844 191.113281 234.898438 191.085938 C 234.945312 191.078125 234.996094 191.066406 235.039062 191.0625 L 235.105469 191.050781 L 235.117188 191.050781 C 235.136719 191 235.152344 190.957031 235.167969 190.910156 C 235.242188 190.710938 235.324219 190.519531 235.410156 190.339844 C 235.5 190.160156 235.589844 189.992188 235.691406 189.835938 C 235.886719 189.523438 236.09375 189.257812 236.300781 189.042969 C 236.71875 188.605469 237.152344 188.359375 237.515625 188.222656 C 237.816406 188.113281 238.082031 188.078125 238.269531 188.070312 C 238.074219 188.0625 237.816406 188.027344 237.515625 187.914062 C 237.152344 187.785156 236.71875 187.535156 236.300781 187.097656 Z M 236.300781 187.09375 " fill-opacity="1" fill-rule="nonzero"/><g clip-path="url(#a38a4a7bb4)"><path fill="#fffceb" d="M 178.539062 187.355469 C 177.933594 186.945312 177.261719 186.640625 176.5625 186.472656 C 176.210938 186.386719 175.851562 186.335938 175.5 186.332031 C 175.140625 186.320312 174.785156 186.351562 174.441406 186.425781 L 174.238281 186.472656 C 174.171875 186.488281 174.109375 186.503906 174.042969 186.527344 C 173.914062 186.566406 173.785156 186.609375 173.660156 186.667969 L 173.566406 186.707031 C 173.53125 186.71875 173.503906 186.734375 173.476562 186.75 L 173.433594 186.773438 L 173.386719 186.796875 L 173.296875 186.839844 L 173.207031 186.890625 L 173.164062 186.914062 L 173.117188 186.941406 L 173.027344 186.992188 C 173.027344 186.992188 172.984375 187.019531 172.957031 187.035156 C 172.933594 187.054688 172.910156 187.070312 172.882812 187.085938 C 172.375 187.355469 171.785156 187.441406 171.226562 187.511719 C 169.628906 187.707031 168.003906 187.636719 166.402344 187.636719 C 145.378906 187.652344 69.398438 187.636719 69.398438 187.636719 L 69.398438 188.476562 C 69.398438 188.476562 145.378906 188.464844 166.402344 188.476562 C 168.011719 188.476562 169.628906 188.402344 171.226562 188.597656 C 171.785156 188.664062 172.367188 188.753906 172.878906 189.019531 C 172.90625 189.042969 172.929688 189.058594 172.957031 189.074219 C 172.976562 189.089844 173.007812 189.109375 173.027344 189.121094 L 173.117188 189.167969 L 173.164062 189.199219 L 173.207031 189.21875 L 173.296875 189.269531 L 173.386719 189.316406 L 173.433594 189.335938 L 173.476562 189.359375 C 173.511719 189.378906 173.539062 189.386719 173.566406 189.40625 L 173.660156 189.445312 C 173.785156 189.496094 173.914062 189.546875 174.042969 189.578125 C 174.105469 189.601562 174.171875 189.617188 174.238281 189.632812 L 174.441406 189.679688 C 174.785156 189.753906 175.144531 189.785156 175.503906 189.773438 C 175.863281 189.761719 176.21875 189.71875 176.566406 189.632812 C 177.269531 189.464844 177.941406 189.160156 178.542969 188.75 C 178.847656 188.542969 179.132812 188.3125 179.394531 188.0625 L 179.414062 188.042969 L 179.394531 188.027344 C 179.132812 187.777344 178.847656 187.546875 178.542969 187.339844 Z M 178.539062 187.355469 " fill-opacity="1" fill-rule="nonzero"/></g><g clip-path="url(#1d1c44511e)"><path fill="#fffceb" d="M 194.074219 188.53125 C 193.945312 188.632812 193.816406 188.734375 193.679688 188.824219 C 193.640625 188.851562 193.597656 188.878906 193.558594 188.90625 L 193.496094 188.945312 L 193.429688 188.984375 C 193.34375 189.035156 193.253906 189.085938 193.164062 189.136719 C 192.984375 189.230469 192.800781 189.308594 192.609375 189.382812 C 192.421875 189.457031 192.222656 189.511719 192.023438 189.554688 C 191.820312 189.601562 191.621094 189.632812 191.414062 189.652344 C 191.207031 189.667969 191 189.667969 190.785156 189.652344 C 190.574219 189.632812 190.367188 189.59375 190.160156 189.535156 C 189.949219 189.476562 189.75 189.394531 189.558594 189.292969 C 189.367188 189.191406 189.191406 189.070312 189.027344 188.933594 C 188.949219 188.867188 188.871094 188.792969 188.796875 188.722656 C 188.792969 188.738281 188.785156 188.75 188.78125 188.765625 C 188.71875 188.917969 188.667969 189.082031 188.625 189.238281 C 188.585938 189.398438 188.550781 189.5625 188.527344 189.730469 C 188.515625 189.8125 188.507812 189.898438 188.5 189.976562 C 188.496094 190.058594 188.488281 190.144531 188.488281 190.226562 C 188.488281 190.394531 188.488281 190.5625 188.511719 190.726562 C 188.527344 190.890625 188.558594 191.050781 188.597656 191.214844 C 188.636719 191.371094 188.683594 191.527344 188.746094 191.671875 C 188.808594 191.820312 188.882812 191.957031 188.964844 192.085938 L 189 192.136719 L 189.03125 192.183594 L 189.050781 192.203125 L 189.066406 192.226562 L 189.101562 192.273438 L 189.140625 192.316406 L 189.171875 192.363281 L 189.210938 192.40625 L 189.273438 192.46875 L 189.296875 192.484375 L 189.335938 192.523438 L 189.378906 192.558594 L 189.402344 192.574219 C 189.402344 192.574219 189.417969 192.585938 189.425781 192.589844 L 189.46875 192.625 L 189.492188 192.640625 C 189.492188 192.640625 189.507812 192.652344 189.515625 192.660156 L 189.558594 192.6875 L 189.582031 192.703125 C 189.582031 192.703125 189.597656 192.714844 189.605469 192.714844 C 189.726562 192.78125 189.851562 192.832031 189.984375 192.859375 L 190.007812 192.859375 C 190.007812 192.859375 190.023438 192.867188 190.03125 192.871094 L 190.078125 192.871094 C 190.078125 192.871094 190.113281 192.882812 190.128906 192.882812 L 190.257812 192.882812 C 190.257812 192.882812 190.277344 192.882812 190.285156 192.882812 L 190.394531 192.882812 C 190.539062 192.859375 190.683594 192.828125 190.832031 192.769531 C 190.976562 192.71875 191.121094 192.652344 191.265625 192.574219 C 191.414062 192.496094 191.550781 192.40625 191.6875 192.304688 C 191.820312 192.203125 191.957031 192.097656 192.085938 191.988281 L 192.179688 191.902344 C 192.214844 191.875 192.242188 191.847656 192.273438 191.8125 L 192.320312 191.769531 L 192.34375 191.746094 L 192.363281 191.722656 L 192.460938 191.628906 C 192.71875 191.371094 192.96875 191.105469 193.222656 190.839844 C 193.695312 190.339844 194.171875 189.835938 194.695312 189.355469 C 194.570312 189.160156 194.4375 188.972656 194.289062 188.792969 C 194.21875 188.703125 194.140625 188.617188 194.0625 188.53125 Z M 194.074219 188.53125 " fill-opacity="1" fill-rule="nonzero"/></g><path fill="#fffceb" d="M 193.023438 187.648438 L 192.976562 187.613281 C 192.902344 187.566406 192.828125 187.527344 192.757812 187.488281 C 192.460938 187.339844 192.144531 187.214844 191.828125 187.148438 C 191.664062 187.113281 191.507812 187.085938 191.34375 187.074219 C 191.183594 187.0625 191.027344 187.0625 190.863281 187.074219 C 190.707031 187.09375 190.550781 187.121094 190.40625 187.160156 C 190.257812 187.199219 190.113281 187.261719 189.980469 187.332031 C 189.84375 187.40625 189.714844 187.488281 189.597656 187.589844 C 189.480469 187.691406 189.367188 187.804688 189.269531 187.921875 C 189.367188 188.042969 189.476562 188.15625 189.597656 188.25 C 189.714844 188.351562 189.84375 188.4375 189.980469 188.507812 C 190.113281 188.582031 190.257812 188.636719 190.40625 188.683594 C 190.554688 188.726562 190.707031 188.753906 190.863281 188.765625 C 191.019531 188.777344 191.183594 188.777344 191.34375 188.765625 C 191.507812 188.753906 191.671875 188.726562 191.828125 188.695312 C 192.144531 188.621094 192.460938 188.503906 192.757812 188.351562 C 192.828125 188.3125 192.902344 188.273438 192.976562 188.230469 L 193.023438 188.195312 L 193.074219 188.160156 C 193.109375 188.140625 193.148438 188.117188 193.183594 188.09375 C 193.261719 188.039062 193.339844 187.984375 193.417969 187.925781 C 193.339844 187.863281 193.261719 187.808594 193.183594 187.757812 C 193.148438 187.734375 193.109375 187.714844 193.074219 187.691406 L 193.023438 187.65625 Z M 193.023438 187.648438 " fill-opacity="1" fill-rule="nonzero"/><g clip-path="url(#71384a3899)"><path fill="#fffceb" d="M 188.507812 185.933594 L 188.507812 185.996094 L 188.515625 186.054688 L 188.527344 186.117188 C 188.550781 186.285156 188.585938 186.449219 188.625 186.609375 C 188.664062 186.773438 188.71875 186.929688 188.78125 187.082031 C 188.785156 187.097656 188.792969 187.109375 188.796875 187.125 C 188.871094 187.054688 188.949219 186.980469 189.027344 186.914062 C 189.191406 186.777344 189.367188 186.65625 189.558594 186.554688 C 189.75 186.453125 189.949219 186.371094 190.160156 186.3125 C 190.367188 186.257812 190.574219 186.21875 190.785156 186.195312 C 190.992188 186.179688 191.207031 186.179688 191.414062 186.195312 C 191.621094 186.214844 191.820312 186.246094 192.023438 186.292969 C 192.222656 186.335938 192.421875 186.398438 192.609375 186.464844 C 192.800781 186.539062 192.984375 186.617188 193.164062 186.710938 C 193.253906 186.757812 193.34375 186.808594 193.429688 186.863281 L 193.496094 186.902344 L 193.558594 186.941406 C 193.597656 186.96875 193.640625 186.996094 193.679688 187.023438 C 193.816406 187.113281 193.945312 187.214844 194.074219 187.316406 C 194.152344 187.230469 194.222656 187.144531 194.300781 187.054688 C 194.488281 186.824219 194.65625 186.582031 194.8125 186.324219 C 194.6875 186.21875 194.570312 186.117188 194.453125 186.011719 L 194.246094 185.828125 C 194.210938 185.792969 194.171875 185.765625 194.140625 185.730469 C 194.105469 185.699219 194.066406 185.671875 194.035156 185.636719 C 193.894531 185.507812 193.757812 185.378906 193.625 185.253906 C 193.355469 185.003906 193.09375 184.75 192.824219 184.515625 C 192.554688 184.28125 192.28125 184.058594 192 183.867188 C 191.714844 183.675781 191.421875 183.507812 191.117188 183.390625 C 191.078125 183.375 191.039062 183.363281 191 183.347656 C 190.980469 183.339844 190.960938 183.335938 190.941406 183.328125 C 190.925781 183.324219 190.902344 183.316406 190.886719 183.3125 C 190.8125 183.289062 190.742188 183.273438 190.664062 183.261719 C 190.589844 183.25 190.515625 183.238281 190.445312 183.234375 C 190.371094 183.234375 190.296875 183.234375 190.226562 183.234375 C 190.085938 183.246094 189.945312 183.277344 189.8125 183.328125 C 189.675781 183.378906 189.554688 183.453125 189.4375 183.542969 C 189.199219 183.722656 189.003906 183.960938 188.851562 184.242188 C 188.703125 184.523438 188.601562 184.828125 188.546875 185.148438 C 188.515625 185.304688 188.5 185.46875 188.5 185.628906 C 188.5 185.710938 188.5 185.792969 188.507812 185.871094 C 188.507812 185.894531 188.507812 185.910156 188.507812 185.933594 Z M 188.507812 185.933594 " fill-opacity="1" fill-rule="nonzero"/></g><path fill="#fffceb" d="M 194.984375 187.609375 C 194.894531 187.714844 194.804688 187.820312 194.714844 187.921875 C 194.8125 188.023438 194.902344 188.128906 194.984375 188.234375 C 195.125 188.410156 195.253906 188.582031 195.378906 188.765625 C 195.410156 188.738281 195.445312 188.714844 195.476562 188.6875 C 195.554688 188.632812 195.628906 188.570312 195.707031 188.515625 C 196.011719 188.289062 196.316406 188.070312 196.632812 187.863281 L 196.660156 187.847656 C 196.257812 187.546875 195.871094 187.230469 195.488281 186.90625 C 195.339844 187.148438 195.171875 187.382812 194.992188 187.609375 Z M 194.984375 187.609375 " fill-opacity="1" fill-rule="nonzero"/><path fill="#fffceb" d="M 187.066406 187.519531 C 186.84375 187.265625 186.636719 186.964844 186.453125 186.621094 C 186.242188 186.222656 186.074219 185.792969 185.953125 185.328125 L 185.875 185.039062 C 185.785156 185.027344 185.695312 185.015625 185.605469 185.003906 C 185.414062 184.980469 185.21875 184.976562 185.023438 184.96875 L 184.730469 184.96875 C 184.683594 184.96875 184.636719 184.96875 184.585938 184.976562 C 184.535156 184.976562 184.492188 184.980469 184.441406 184.988281 C 184.25 184.996094 184.058594 185.019531 183.875 185.046875 C 183.832031 185.054688 183.78125 185.066406 183.734375 185.070312 L 183.667969 185.082031 L 183.65625 185.082031 C 183.640625 185.132812 183.625 185.175781 183.605469 185.222656 C 183.535156 185.421875 183.449219 185.613281 183.367188 185.792969 C 183.277344 185.972656 183.1875 186.140625 183.089844 186.296875 C 182.894531 186.609375 182.6875 186.875 182.480469 187.09375 C 182.0625 187.527344 181.628906 187.777344 181.265625 187.910156 C 180.964844 188.023438 180.699219 188.054688 180.511719 188.0625 C 180.707031 188.070312 180.964844 188.105469 181.265625 188.21875 C 181.628906 188.347656 182.0625 188.597656 182.480469 189.035156 C 182.695312 189.253906 182.902344 189.515625 183.089844 189.832031 C 183.1875 189.988281 183.28125 190.15625 183.367188 190.335938 C 183.449219 190.515625 183.535156 190.703125 183.605469 190.90625 C 183.625 190.949219 183.640625 191 183.65625 191.046875 L 183.667969 191.046875 L 183.734375 191.058594 C 183.78125 191.0625 183.832031 191.074219 183.875 191.078125 C 184.058594 191.105469 184.25 191.128906 184.441406 191.140625 C 184.632812 191.15625 184.828125 191.15625 185.019531 191.15625 C 185.214844 191.152344 185.402344 191.140625 185.601562 191.125 C 185.691406 191.113281 185.777344 191.101562 185.867188 191.089844 L 185.945312 190.800781 C 186.070312 190.335938 186.238281 189.902344 186.445312 189.511719 C 186.628906 189.164062 186.835938 188.863281 187.0625 188.617188 C 187.191406 188.46875 187.320312 188.347656 187.414062 188.257812 L 187.425781 188.246094 L 187.4375 188.246094 C 187.4375 188.246094 187.464844 188.21875 187.476562 188.207031 C 187.515625 188.171875 187.566406 188.128906 187.621094 188.089844 C 187.628906 188.089844 187.632812 188.078125 187.636719 188.078125 L 187.648438 188.078125 C 187.4375 187.914062 187.242188 187.730469 187.066406 187.527344 Z M 187.066406 187.519531 " fill-opacity="1" fill-rule="nonzero"/><path fill="#fffceb" d="M 197.324219 187.84375 L 209.386719 188.339844 L 221.449219 187.84375 L 209.386719 187.339844 Z M 197.324219 187.84375 " fill-opacity="1" fill-rule="nonzero"/><g clip-path="url(#9f7b032d77)"><path fill="#fffceb" d="M 252.378906 108.914062 C 250.769531 108.914062 249.152344 108.988281 247.554688 108.792969 C 246.988281 108.71875 246.402344 108.632812 245.898438 108.367188 C 245.875 108.347656 245.847656 108.332031 245.824219 108.316406 C 245.804688 108.296875 245.773438 108.28125 245.753906 108.269531 L 245.664062 108.21875 L 245.617188 108.191406 L 245.574219 108.167969 L 245.484375 108.117188 L 245.394531 108.074219 L 245.347656 108.050781 L 245.304688 108.03125 C 245.277344 108.011719 245.242188 108 245.210938 107.984375 L 245.113281 107.945312 C 244.992188 107.894531 244.863281 107.84375 244.734375 107.804688 C 244.671875 107.78125 244.605469 107.765625 244.539062 107.75 L 244.335938 107.703125 C 243.988281 107.632812 243.628906 107.597656 243.273438 107.609375 C 242.914062 107.621094 242.554688 107.664062 242.207031 107.75 C 241.507812 107.917969 240.835938 108.226562 240.230469 108.632812 C 239.929688 108.839844 239.644531 109.070312 239.378906 109.324219 L 239.363281 109.339844 L 239.378906 109.355469 C 239.644531 109.609375 239.929688 109.839844 240.230469 110.046875 C 240.835938 110.453125 241.507812 110.761719 242.207031 110.929688 C 242.5625 111.015625 242.914062 111.066406 243.273438 111.070312 C 243.628906 111.082031 243.984375 111.046875 244.335938 110.976562 L 244.539062 110.929688 C 244.605469 110.914062 244.667969 110.898438 244.734375 110.875 C 244.863281 110.835938 244.992188 110.789062 245.113281 110.738281 L 245.210938 110.699219 C 245.242188 110.6875 245.269531 110.671875 245.304688 110.65625 L 245.347656 110.632812 L 245.394531 110.609375 L 245.484375 110.566406 L 245.574219 110.515625 L 245.617188 110.492188 L 245.664062 110.464844 L 245.753906 110.414062 C 245.753906 110.414062 245.796875 110.386719 245.824219 110.371094 C 245.851562 110.351562 245.875 110.332031 245.902344 110.3125 C 246.40625 110.050781 246.996094 109.96875 247.554688 109.894531 C 249.152344 109.699219 250.777344 109.769531 252.378906 109.769531 C 273.402344 109.753906 349.382812 109.769531 349.382812 109.769531 L 349.382812 108.929688 C 349.382812 108.929688 273.402344 108.941406 252.378906 108.929688 Z M 252.378906 108.914062 " fill-opacity="1" fill-rule="nonzero"/></g><g clip-path="url(#52e7240c5e)"><path fill="#fffceb" d="M 230.246094 111.007812 C 230.222656 110.839844 230.191406 110.679688 230.152344 110.515625 C 230.113281 110.351562 230.054688 110.195312 229.996094 110.046875 C 229.988281 110.027344 229.984375 110.015625 229.976562 110 C 229.90625 110.074219 229.828125 110.144531 229.75 110.214844 C 229.585938 110.347656 229.40625 110.472656 229.214844 110.570312 C 229.027344 110.671875 228.824219 110.757812 228.617188 110.8125 C 228.410156 110.867188 228.203125 110.90625 227.988281 110.929688 C 227.78125 110.945312 227.570312 110.945312 227.363281 110.929688 C 227.15625 110.914062 226.953125 110.878906 226.753906 110.835938 C 226.550781 110.789062 226.355469 110.730469 226.164062 110.660156 C 225.972656 110.589844 225.789062 110.511719 225.609375 110.414062 C 225.519531 110.371094 225.429688 110.320312 225.347656 110.265625 L 225.28125 110.222656 L 225.21875 110.183594 C 225.179688 110.15625 225.132812 110.128906 225.09375 110.101562 C 224.960938 110.011719 224.832031 109.910156 224.703125 109.808594 C 224.625 109.894531 224.550781 109.984375 224.472656 110.074219 C 224.328125 110.253906 224.195312 110.4375 224.070312 110.632812 C 224.589844 111.113281 225.074219 111.617188 225.542969 112.117188 C 225.796875 112.386719 226.046875 112.648438 226.304688 112.90625 L 226.398438 113.003906 L 226.421875 113.023438 L 226.488281 113.089844 C 226.523438 113.121094 226.550781 113.152344 226.585938 113.179688 L 226.679688 113.265625 C 226.808594 113.378906 226.941406 113.484375 227.078125 113.585938 C 227.210938 113.683594 227.351562 113.773438 227.496094 113.851562 C 227.644531 113.929688 227.789062 114 227.933594 114.050781 C 228.078125 114.097656 228.226562 114.132812 228.371094 114.148438 L 228.476562 114.148438 C 228.476562 114.148438 228.492188 114.160156 228.503906 114.160156 L 228.632812 114.160156 C 228.632812 114.160156 228.667969 114.15625 228.683594 114.148438 L 228.734375 114.148438 C 228.734375 114.148438 228.75 114.140625 228.757812 114.140625 L 228.78125 114.140625 C 228.914062 114.105469 229.042969 114.054688 229.160156 113.988281 C 229.167969 113.988281 229.175781 113.980469 229.183594 113.976562 L 229.207031 113.960938 L 229.25 113.929688 C 229.25 113.929688 229.265625 113.921875 229.273438 113.914062 L 229.292969 113.898438 L 229.339844 113.863281 C 229.339844 113.863281 229.355469 113.851562 229.363281 113.847656 L 229.382812 113.832031 L 229.429688 113.796875 L 229.46875 113.757812 L 229.492188 113.742188 L 229.511719 113.71875 L 229.550781 113.679688 L 229.589844 113.636719 L 229.609375 113.613281 L 229.625 113.589844 L 229.664062 113.546875 L 229.699219 113.5 L 229.714844 113.476562 L 229.730469 113.457031 L 229.765625 113.410156 L 229.800781 113.359375 C 229.882812 113.230469 229.957031 113.089844 230.015625 112.945312 C 230.078125 112.800781 230.128906 112.644531 230.167969 112.488281 C 230.207031 112.328125 230.234375 112.167969 230.253906 112 C 230.269531 111.835938 230.273438 111.667969 230.273438 111.5 C 230.273438 111.417969 230.269531 111.332031 230.265625 111.25 C 230.257812 111.164062 230.246094 111.082031 230.234375 111.003906 Z M 230.246094 111.007812 " fill-opacity="1" fill-rule="nonzero"/></g><path fill="#fffceb" d="M 228.796875 108.613281 C 228.664062 108.539062 228.515625 108.484375 228.371094 108.4375 C 228.226562 108.394531 228.070312 108.367188 227.910156 108.355469 C 227.753906 108.34375 227.59375 108.34375 227.429688 108.355469 C 227.269531 108.367188 227.105469 108.394531 226.949219 108.425781 C 226.628906 108.5 226.316406 108.617188 226.019531 108.769531 C 225.945312 108.808594 225.875 108.847656 225.800781 108.890625 L 225.699219 108.960938 C 225.667969 108.980469 225.628906 109.003906 225.59375 109.027344 C 225.515625 109.082031 225.4375 109.136719 225.359375 109.195312 C 225.4375 109.253906 225.515625 109.3125 225.59375 109.363281 C 225.628906 109.382812 225.667969 109.40625 225.699219 109.429688 L 225.75 109.464844 L 225.800781 109.496094 C 225.875 109.542969 225.945312 109.582031 226.019531 109.621094 C 226.316406 109.769531 226.628906 109.894531 226.949219 109.960938 C 227.109375 109.996094 227.269531 110.023438 227.429688 110.035156 C 227.59375 110.046875 227.75 110.046875 227.910156 110.035156 C 228.070312 110.015625 228.226562 109.988281 228.371094 109.949219 C 228.523438 109.910156 228.660156 109.847656 228.796875 109.777344 C 228.929688 109.703125 229.058594 109.621094 229.175781 109.519531 C 229.292969 109.417969 229.40625 109.304688 229.507812 109.1875 C 229.40625 109.066406 229.300781 108.953125 229.175781 108.859375 C 229.058594 108.757812 228.929688 108.671875 228.796875 108.601562 Z M 228.796875 108.613281 " fill-opacity="1" fill-rule="nonzero"/><g clip-path="url(#7704bb612c)"><path fill="#fffceb" d="M 224.703125 108.59375 C 224.832031 108.496094 224.960938 108.394531 225.09375 108.304688 C 225.132812 108.277344 225.179688 108.246094 225.21875 108.21875 L 225.28125 108.179688 L 225.347656 108.140625 C 225.429688 108.089844 225.519531 108.039062 225.609375 107.992188 C 225.789062 107.894531 225.972656 107.816406 226.164062 107.742188 C 226.355469 107.671875 226.550781 107.613281 226.753906 107.570312 C 226.953125 107.527344 227.15625 107.492188 227.363281 107.476562 C 227.570312 107.457031 227.777344 107.457031 227.988281 107.476562 C 228.203125 107.492188 228.410156 107.53125 228.617188 107.59375 C 228.824219 107.648438 229.027344 107.734375 229.214844 107.832031 C 229.40625 107.933594 229.585938 108.058594 229.75 108.191406 C 229.828125 108.257812 229.90625 108.332031 229.976562 108.40625 C 229.984375 108.386719 229.988281 108.375 229.996094 108.359375 C 230.054688 108.207031 230.105469 108.046875 230.152344 107.890625 C 230.191406 107.726562 230.222656 107.566406 230.246094 107.398438 L 230.257812 107.335938 L 230.257812 107.273438 L 230.269531 107.238281 L 230.269531 107.210938 C 230.269531 107.210938 230.273438 107.171875 230.273438 107.148438 C 230.28125 107.070312 230.28125 106.988281 230.28125 106.910156 C 230.28125 106.746094 230.261719 106.589844 230.234375 106.429688 C 230.179688 106.109375 230.078125 105.800781 229.925781 105.519531 C 229.777344 105.242188 229.582031 105 229.34375 104.820312 C 229.226562 104.730469 229.105469 104.660156 228.96875 104.609375 C 228.835938 104.558594 228.703125 104.523438 228.554688 104.511719 C 228.484375 104.507812 228.410156 104.507812 228.335938 104.511719 C 228.265625 104.511719 228.191406 104.523438 228.117188 104.539062 C 228.046875 104.550781 227.972656 104.570312 227.894531 104.589844 C 227.878906 104.589844 227.855469 104.601562 227.839844 104.609375 C 227.820312 104.613281 227.804688 104.621094 227.78125 104.625 C 227.742188 104.640625 227.703125 104.652344 227.664062 104.667969 C 227.355469 104.789062 227.066406 104.949219 226.78125 105.144531 C 226.496094 105.335938 226.226562 105.558594 225.957031 105.796875 C 225.6875 106.03125 225.425781 106.28125 225.15625 106.535156 C 225.023438 106.664062 224.886719 106.792969 224.746094 106.914062 C 224.714844 106.949219 224.679688 106.976562 224.640625 107.011719 C 224.609375 107.042969 224.570312 107.070312 224.535156 107.105469 L 224.328125 107.289062 C 224.210938 107.398438 224.085938 107.496094 223.96875 107.605469 C 224.121094 107.855469 224.289062 108.101562 224.472656 108.332031 C 224.546875 108.421875 224.625 108.511719 224.703125 108.59375 Z M 224.703125 108.59375 " fill-opacity="1" fill-rule="nonzero"/></g><path fill="#fffceb" d="M 223.292969 108.1875 C 222.910156 108.503906 222.519531 108.824219 222.121094 109.128906 C 222.132812 109.132812 222.144531 109.136719 222.148438 109.144531 C 222.464844 109.351562 222.769531 109.570312 223.074219 109.792969 C 223.144531 109.847656 223.226562 109.910156 223.304688 109.96875 C 223.335938 109.996094 223.371094 110.015625 223.402344 110.046875 C 223.527344 109.859375 223.65625 109.6875 223.796875 109.511719 C 223.886719 109.40625 223.976562 109.300781 224.066406 109.199219 C 223.96875 109.097656 223.878906 108.992188 223.796875 108.886719 C 223.617188 108.664062 223.449219 108.425781 223.296875 108.1875 Z M 223.292969 108.1875 " fill-opacity="1" fill-rule="nonzero"/><path fill="#fffceb" d="M 236.300781 108.371094 C 236.085938 108.152344 235.878906 107.890625 235.691406 107.574219 C 235.59375 107.417969 235.5 107.25 235.410156 107.070312 C 235.324219 106.894531 235.242188 106.703125 235.167969 106.5 C 235.152344 106.457031 235.136719 106.40625 235.117188 106.359375 L 235.109375 106.359375 L 235.039062 106.347656 C 234.996094 106.34375 234.949219 106.332031 234.898438 106.328125 C 234.714844 106.300781 234.523438 106.277344 234.335938 106.265625 C 234.285156 106.265625 234.238281 106.261719 234.1875 106.253906 C 234.136719 106.253906 234.09375 106.253906 234.042969 106.253906 L 233.753906 106.253906 C 233.554688 106.253906 233.367188 106.265625 233.167969 106.289062 C 233.082031 106.300781 232.992188 106.308594 232.902344 106.320312 L 232.824219 106.613281 C 232.699219 107.078125 232.53125 107.507812 232.324219 107.90625 C 232.140625 108.253906 231.933594 108.550781 231.707031 108.800781 C 231.527344 109.003906 231.332031 109.1875 231.125 109.34375 L 231.136719 109.34375 C 231.136719 109.34375 231.148438 109.363281 231.152344 109.367188 C 231.210938 109.40625 231.261719 109.453125 231.300781 109.484375 C 231.3125 109.496094 231.328125 109.507812 231.339844 109.519531 L 231.351562 109.519531 L 231.359375 109.535156 C 231.460938 109.625 231.589844 109.75 231.714844 109.894531 C 231.9375 110.144531 232.144531 110.441406 232.328125 110.789062 C 232.535156 111.1875 232.707031 111.617188 232.828125 112.082031 L 232.90625 112.375 C 232.996094 112.386719 233.085938 112.398438 233.175781 112.410156 C 233.367188 112.429688 233.5625 112.4375 233.757812 112.441406 C 233.953125 112.441406 234.144531 112.441406 234.335938 112.425781 C 234.523438 112.414062 234.714844 112.390625 234.898438 112.363281 C 234.945312 112.359375 234.996094 112.347656 235.039062 112.339844 L 235.105469 112.328125 L 235.117188 112.328125 C 235.136719 112.28125 235.152344 112.234375 235.167969 112.191406 C 235.242188 111.988281 235.324219 111.796875 235.410156 111.617188 C 235.5 111.441406 235.589844 111.273438 235.691406 111.113281 C 235.886719 110.800781 236.09375 110.539062 236.300781 110.320312 C 236.71875 109.882812 237.152344 109.636719 237.515625 109.503906 C 237.816406 109.390625 238.082031 109.355469 238.269531 109.351562 C 238.074219 109.339844 237.816406 109.304688 237.515625 109.195312 C 237.152344 109.066406 236.71875 108.8125 236.300781 108.375 Z M 236.300781 108.371094 " fill-opacity="1" fill-rule="nonzero"/><g clip-path="url(#2137f6801b)"><path fill="#fffceb" d="M 178.539062 108.632812 C 177.933594 108.226562 177.261719 107.917969 176.5625 107.75 C 176.210938 107.664062 175.851562 107.613281 175.5 107.609375 C 175.140625 107.597656 174.785156 107.632812 174.441406 107.703125 L 174.238281 107.75 C 174.171875 107.765625 174.109375 107.78125 174.042969 107.804688 C 173.914062 107.84375 173.785156 107.890625 173.660156 107.945312 L 173.566406 107.984375 C 173.53125 107.996094 173.503906 108.011719 173.476562 108.03125 L 173.433594 108.050781 L 173.386719 108.074219 L 173.296875 108.117188 L 173.207031 108.167969 L 173.164062 108.191406 L 173.117188 108.21875 L 173.027344 108.269531 C 173.027344 108.269531 172.984375 108.296875 172.957031 108.316406 C 172.933594 108.332031 172.910156 108.347656 172.882812 108.367188 C 172.375 108.632812 171.785156 108.71875 171.226562 108.792969 C 169.628906 108.988281 168.003906 108.914062 166.402344 108.914062 C 145.378906 108.929688 69.398438 108.914062 69.398438 108.914062 L 69.398438 109.753906 C 69.398438 109.753906 145.378906 109.742188 166.402344 109.753906 C 168.011719 109.753906 169.628906 109.679688 171.226562 109.878906 C 171.785156 109.945312 172.367188 110.035156 172.878906 110.296875 C 172.90625 110.320312 172.929688 110.335938 172.957031 110.351562 C 172.976562 110.371094 173.007812 110.386719 173.027344 110.398438 L 173.117188 110.449219 L 173.164062 110.476562 L 173.207031 110.5 L 173.296875 110.550781 L 173.386719 110.59375 L 173.433594 110.617188 L 173.476562 110.640625 C 173.511719 110.65625 173.539062 110.667969 173.566406 110.683594 L 173.660156 110.722656 C 173.785156 110.773438 173.914062 110.824219 174.042969 110.855469 C 174.105469 110.878906 174.171875 110.898438 174.238281 110.914062 L 174.339844 110.9375 L 174.390625 110.945312 L 174.441406 110.957031 C 174.785156 111.03125 175.144531 111.066406 175.503906 111.054688 C 175.863281 111.042969 176.21875 110.996094 176.566406 110.914062 C 177.269531 110.746094 177.941406 110.4375 178.542969 110.027344 C 178.847656 109.820312 179.132812 109.589844 179.394531 109.339844 L 179.414062 109.324219 L 179.394531 109.304688 C 179.132812 109.054688 178.847656 108.824219 178.542969 108.617188 Z M 178.539062 108.632812 " fill-opacity="1" fill-rule="nonzero"/></g><g clip-path="url(#6427bc32ce)"><path fill="#fffceb" d="M 194.074219 109.808594 C 193.945312 109.910156 193.816406 110.011719 193.679688 110.101562 C 193.640625 110.128906 193.597656 110.15625 193.558594 110.183594 L 193.496094 110.222656 L 193.429688 110.265625 C 193.34375 110.3125 193.253906 110.363281 193.164062 110.414062 C 192.984375 110.511719 192.800781 110.589844 192.609375 110.660156 C 192.421875 110.734375 192.222656 110.789062 192.023438 110.835938 C 191.820312 110.878906 191.621094 110.914062 191.414062 110.929688 C 191.207031 110.945312 191 110.945312 190.785156 110.929688 C 190.574219 110.914062 190.367188 110.875 190.160156 110.8125 C 189.949219 110.757812 189.75 110.671875 189.558594 110.570312 C 189.367188 110.472656 189.191406 110.347656 189.027344 110.214844 C 188.949219 110.144531 188.871094 110.074219 188.796875 110 C 188.792969 110.015625 188.785156 110.027344 188.78125 110.046875 C 188.71875 110.195312 188.667969 110.359375 188.625 110.515625 C 188.585938 110.679688 188.550781 110.839844 188.527344 111.007812 C 188.515625 111.09375 188.507812 111.175781 188.5 111.253906 C 188.496094 111.339844 188.488281 111.421875 188.488281 111.507812 C 188.488281 111.675781 188.488281 111.84375 188.511719 112.003906 C 188.527344 112.167969 188.558594 112.328125 188.597656 112.492188 C 188.636719 112.648438 188.683594 112.804688 188.746094 112.953125 C 188.808594 113.097656 188.882812 113.238281 188.964844 113.367188 L 189 113.417969 L 189.03125 113.460938 L 189.050781 113.484375 L 189.066406 113.507812 L 189.101562 113.550781 L 189.140625 113.59375 L 189.171875 113.640625 L 189.210938 113.683594 L 189.273438 113.746094 L 189.296875 113.761719 L 189.335938 113.804688 L 189.378906 113.835938 L 189.402344 113.851562 C 189.402344 113.851562 189.417969 113.863281 189.425781 113.871094 L 189.46875 113.902344 L 189.492188 113.921875 C 189.492188 113.921875 189.507812 113.929688 189.515625 113.9375 L 189.558594 113.964844 L 189.582031 113.980469 C 189.582031 113.980469 189.597656 113.992188 189.605469 113.992188 C 189.726562 114.058594 189.851562 114.109375 189.984375 114.140625 L 190.007812 114.140625 C 190.007812 114.140625 190.023438 114.144531 190.03125 114.148438 L 190.078125 114.148438 C 190.078125 114.148438 190.113281 114.160156 190.128906 114.160156 L 190.257812 114.160156 C 190.257812 114.160156 190.277344 114.160156 190.285156 114.160156 L 190.394531 114.160156 C 190.539062 114.140625 190.683594 114.105469 190.832031 114.050781 C 190.976562 114 191.121094 113.929688 191.265625 113.851562 C 191.414062 113.773438 191.550781 113.683594 191.6875 113.585938 C 191.820312 113.484375 191.957031 113.378906 192.085938 113.265625 L 192.179688 113.179688 C 192.214844 113.152344 192.242188 113.125 192.273438 113.089844 L 192.320312 113.046875 L 192.460938 112.90625 C 192.71875 112.648438 192.96875 112.386719 193.222656 112.117188 C 193.695312 111.617188 194.171875 111.113281 194.695312 110.632812 C 194.570312 110.4375 194.4375 110.253906 194.289062 110.074219 C 194.21875 109.984375 194.140625 109.894531 194.0625 109.808594 Z M 194.074219 109.808594 " fill-opacity="1" fill-rule="nonzero"/></g><path fill="#fffceb" d="M 193.023438 108.925781 L 192.976562 108.890625 C 192.902344 108.847656 192.828125 108.808594 192.757812 108.769531 C 192.460938 108.617188 192.144531 108.496094 191.828125 108.425781 C 191.664062 108.394531 191.507812 108.367188 191.34375 108.355469 C 191.183594 108.34375 191.027344 108.34375 190.863281 108.355469 C 190.707031 108.371094 190.550781 108.398438 190.40625 108.4375 C 190.257812 108.476562 190.113281 108.539062 189.980469 108.613281 C 189.84375 108.683594 189.714844 108.769531 189.597656 108.871094 C 189.480469 108.96875 189.367188 109.082031 189.269531 109.199219 C 189.367188 109.324219 189.476562 109.433594 189.597656 109.53125 C 189.714844 109.632812 189.84375 109.714844 189.980469 109.789062 C 190.113281 109.859375 190.257812 109.917969 190.40625 109.960938 C 190.554688 110.007812 190.707031 110.035156 190.863281 110.046875 C 191.019531 110.054688 191.183594 110.054688 191.34375 110.046875 C 191.507812 110.035156 191.671875 110.007812 191.828125 109.972656 C 192.144531 109.898438 192.460938 109.78125 192.757812 109.632812 C 192.828125 109.589844 192.902344 109.550781 192.976562 109.507812 L 193.023438 109.472656 L 193.074219 109.441406 C 193.109375 109.417969 193.148438 109.394531 193.183594 109.375 C 193.261719 109.316406 193.339844 109.261719 193.417969 109.207031 C 193.339844 109.144531 193.261719 109.085938 193.183594 109.039062 C 193.148438 109.015625 193.109375 108.992188 193.074219 108.96875 L 193.023438 108.9375 Z M 193.023438 108.925781 " fill-opacity="1" fill-rule="nonzero"/><g clip-path="url(#1a040622a3)"><path fill="#fffceb" d="M 188.507812 107.210938 L 188.507812 107.273438 L 188.515625 107.335938 L 188.527344 107.398438 C 188.550781 107.566406 188.585938 107.726562 188.625 107.890625 C 188.664062 108.050781 188.71875 108.207031 188.78125 108.359375 C 188.785156 108.375 188.792969 108.386719 188.796875 108.40625 C 188.871094 108.332031 188.949219 108.257812 189.027344 108.191406 C 189.191406 108.058594 189.367188 107.933594 189.558594 107.832031 C 189.75 107.734375 189.949219 107.648438 190.160156 107.59375 C 190.367188 107.535156 190.574219 107.496094 190.785156 107.476562 C 190.992188 107.457031 191.207031 107.457031 191.414062 107.476562 C 191.621094 107.492188 191.820312 107.527344 192.023438 107.570312 C 192.222656 107.613281 192.421875 107.675781 192.609375 107.742188 C 192.800781 107.816406 192.984375 107.894531 193.164062 107.992188 C 193.253906 108.035156 193.34375 108.085938 193.429688 108.140625 L 193.496094 108.179688 L 193.558594 108.21875 C 193.597656 108.246094 193.640625 108.277344 193.679688 108.304688 C 193.816406 108.394531 193.945312 108.496094 194.074219 108.59375 C 194.152344 108.511719 194.222656 108.421875 194.300781 108.332031 C 194.488281 108.101562 194.65625 107.863281 194.8125 107.605469 C 194.6875 107.496094 194.570312 107.398438 194.453125 107.289062 L 194.246094 107.105469 C 194.210938 107.070312 194.171875 107.042969 194.140625 107.011719 C 194.105469 106.976562 194.066406 106.949219 194.035156 106.914062 C 193.894531 106.785156 193.757812 106.65625 193.625 106.535156 C 193.355469 106.28125 193.09375 106.03125 192.824219 105.796875 C 192.554688 105.558594 192.28125 105.335938 192 105.144531 C 191.714844 104.957031 191.421875 104.789062 191.117188 104.667969 C 191.078125 104.652344 191.039062 104.640625 191 104.625 C 190.980469 104.621094 190.960938 104.613281 190.941406 104.609375 C 190.925781 104.601562 190.902344 104.597656 190.886719 104.589844 C 190.8125 104.570312 190.742188 104.550781 190.664062 104.539062 C 190.589844 104.53125 190.515625 104.519531 190.445312 104.511719 C 190.371094 104.511719 190.296875 104.511719 190.226562 104.511719 C 190.085938 104.523438 189.945312 104.558594 189.8125 104.609375 C 189.675781 104.660156 189.554688 104.730469 189.4375 104.820312 C 189.199219 105 189.003906 105.242188 188.851562 105.519531 C 188.703125 105.800781 188.601562 106.109375 188.546875 106.429688 C 188.515625 106.585938 188.5 106.746094 188.5 106.910156 C 188.5 106.988281 188.5 107.070312 188.507812 107.148438 C 188.507812 107.171875 188.507812 107.191406 188.507812 107.210938 Z M 188.507812 107.210938 " fill-opacity="1" fill-rule="nonzero"/></g><path fill="#fffceb" d="M 194.984375 108.886719 C 194.894531 108.992188 194.804688 109.097656 194.714844 109.199219 C 194.8125 109.300781 194.902344 109.40625 194.984375 109.511719 C 195.125 109.6875 195.253906 109.859375 195.378906 110.046875 C 195.410156 110.015625 195.445312 109.996094 195.476562 109.96875 C 195.554688 109.910156 195.628906 109.847656 195.707031 109.792969 C 196.011719 109.570312 196.316406 109.351562 196.632812 109.144531 L 196.660156 109.128906 C 196.257812 108.824219 195.871094 108.511719 195.488281 108.1875 C 195.339844 108.425781 195.171875 108.664062 194.992188 108.886719 Z M 194.984375 108.886719 " fill-opacity="1" fill-rule="nonzero"/><path fill="#fffceb" d="M 187.066406 108.796875 C 186.84375 108.542969 186.636719 108.242188 186.453125 107.902344 C 186.242188 107.503906 186.074219 107.070312 185.953125 106.605469 L 185.875 106.316406 C 185.785156 106.304688 185.695312 106.292969 185.605469 106.28125 C 185.414062 106.261719 185.21875 106.253906 185.023438 106.25 L 184.730469 106.25 C 184.683594 106.25 184.636719 106.25 184.585938 106.253906 C 184.535156 106.253906 184.492188 106.261719 184.441406 106.265625 C 184.25 106.277344 184.058594 106.300781 183.875 106.328125 C 183.832031 106.332031 183.78125 106.34375 183.734375 106.347656 L 183.667969 106.359375 L 183.65625 106.359375 C 183.640625 106.410156 183.625 106.457031 183.605469 106.5 C 183.535156 106.703125 183.449219 106.894531 183.367188 107.070312 C 183.277344 107.25 183.1875 107.417969 183.089844 107.574219 C 182.894531 107.890625 182.6875 108.152344 182.480469 108.371094 C 182.0625 108.808594 181.628906 109.054688 181.265625 109.1875 C 180.964844 109.300781 180.699219 109.335938 180.511719 109.339844 C 180.707031 109.351562 180.964844 109.382812 181.265625 109.496094 C 181.628906 109.625 182.0625 109.878906 182.480469 110.3125 C 182.695312 110.53125 182.902344 110.796875 183.089844 111.109375 C 183.1875 111.265625 183.28125 111.433594 183.367188 111.613281 C 183.449219 111.792969 183.535156 111.984375 183.605469 112.183594 C 183.625 112.230469 183.640625 112.28125 183.65625 112.324219 L 183.667969 112.324219 L 183.734375 112.335938 C 183.78125 112.339844 183.832031 112.351562 183.875 112.359375 C 184.058594 112.386719 184.25 112.410156 184.441406 112.417969 C 184.632812 112.4375 184.828125 112.4375 185.019531 112.4375 C 185.214844 112.429688 185.402344 112.417969 185.601562 112.402344 C 185.691406 112.390625 185.777344 112.378906 185.867188 112.371094 L 185.945312 112.078125 C 186.070312 111.613281 186.238281 111.183594 186.445312 110.789062 C 186.628906 110.441406 186.835938 110.140625 187.0625 109.894531 C 187.191406 109.75 187.320312 109.625 187.414062 109.535156 L 187.425781 109.523438 L 187.4375 109.523438 C 187.4375 109.523438 187.464844 109.496094 187.476562 109.484375 C 187.515625 109.453125 187.566406 109.40625 187.621094 109.367188 C 187.628906 109.367188 187.632812 109.355469 187.636719 109.355469 L 187.648438 109.355469 C 187.4375 109.195312 187.242188 109.007812 187.066406 108.808594 Z M 187.066406 108.796875 " fill-opacity="1" fill-rule="nonzero"/><path fill="#fffceb" d="M 197.324219 109.121094 L 209.386719 109.621094 L 221.449219 109.121094 L 209.386719 108.617188 Z M 197.324219 109.121094 " fill-opacity="1" fill-rule="nonzero"/></svg>